<svg xmlns="http://www.w3.org/2000/svg" width="26.25" height="26.25" viewBox="0 0 26.25 26.25"><path d="M22.318,5.689a13.012,13.012,0,0,0-20.473,15.7L0,28.125l6.9-1.811A12.968,12.968,0,0,0,13.113,27.9h.006A13.133,13.133,0,0,0,26.25,14.889,13.059,13.059,0,0,0,22.318,5.689Zm-9.2,20.016A10.792,10.792,0,0,1,7.611,24.2l-.393-.234-4.09,1.072,1.09-3.99-.258-.41a10.833,10.833,0,1,1,20.092-5.748A10.932,10.932,0,0,1,13.119,25.705Zm5.93-8.1c-.322-.164-1.922-.949-2.221-1.055s-.516-.164-.732.164-.838,1.055-1.031,1.277-.381.246-.7.082a8.847,8.847,0,0,1-4.424-3.867c-.334-.574.334-.533.955-1.775a.6.6,0,0,0-.029-.568c-.082-.164-.732-1.764-1-2.414-.264-.633-.533-.545-.732-.557s-.4-.012-.621-.012a1.2,1.2,0,0,0-.867.4A3.652,3.652,0,0,0,6.5,12a6.367,6.367,0,0,0,1.324,3.363,14.524,14.524,0,0,0,5.555,4.91c2.063.891,2.871.967,3.9.814a3.329,3.329,0,0,0,2.191-1.547,2.718,2.718,0,0,0,.188-1.547C19.588,17.848,19.371,17.766,19.049,17.607Z" transform="translate(0 -1.875)" fill="#fff"/></svg>