<svg xmlns="http://www.w3.org/2000/svg" width="27.5" height="22.5" viewBox="0 0 27.5 22.5"><g transform="translate(1.25 1.25)"><path d="M5,3.75H25A3.754,3.754,0,0,1,28.75,7.5v15A3.754,3.754,0,0,1,25,26.25H5A3.754,3.754,0,0,1,1.25,22.5V7.5A3.754,3.754,0,0,1,5,3.75Zm20,20a1.251,1.251,0,0,0,1.25-1.25V7.5A1.251,1.251,0,0,0,25,6.25H5A1.251,1.251,0,0,0,3.75,7.5v15A1.251,1.251,0,0,0,5,23.75Z" transform="translate(-2.5 -5)" fill="#fff"/><path d="M15,17.5a1.249,1.249,0,0,1-.717-.226l-12.5-8.75A1.25,1.25,0,0,1,3.217,6.476L15,14.724,26.783,6.476a1.25,1.25,0,1,1,1.434,2.048l-12.5,8.75A1.249,1.249,0,0,1,15,17.5Z" transform="translate(-2.5 -5)" fill="#fff"/></g></svg>